<svg width="142" height="48" viewBox="0 0 142 48" fill="none" xmlns="http://www.w3.org/2000/svg">
<path fill-rule="evenodd" clip-rule="evenodd" d="M8.20681 0C8.93151 1.81265 8.50877 4.38306 8.20681 5.44169C7.82593 6.63373 6.67222 12.0774 8.80673 18.0114C8.83866 18.1002 8.87132 18.189 8.90472 18.278C9.28921 19.306 9.58593 20.355 9.84504 21.4688L11.0319 27.3718V27.3739L11.034 27.376L12.0097 32.2248L13.0149 37.22C13.1412 37.7127 13.4518 38.138 13.8826 38.4084C14.3134 38.6787 14.8316 38.7734 15.3301 38.6729C15.8287 38.5724 16.2697 38.2843 16.5621 37.8682C16.8545 37.452 16.976 36.9395 16.9015 36.4364L16.053 32.2248L15.0794 27.3927C14.9938 26.9685 14.9645 26.4545 15.5893 26.3019C16.2015 26.1494 16.5547 26.7073 16.9392 28.2557L17.931 32.2248L19.572 38.7914C19.6348 39.0763 19.7542 39.3458 19.9229 39.5839C20.0917 39.822 20.3065 40.0239 20.5546 40.1776C20.8026 40.3312 21.079 40.4336 21.3674 40.4787C21.6557 40.5237 21.9501 40.5105 22.2333 40.4398C22.5164 40.3691 22.7825 40.2424 23.0159 40.0671C23.2492 39.8919 23.445 39.6716 23.5918 39.4194C23.7386 39.1671 23.8333 38.888 23.8703 38.5985C23.9074 38.3091 23.8861 38.0151 23.8076 37.734L22.4321 32.2248L20.9532 26.3019C20.8571 25.8193 20.832 25.2655 21.1935 25.113C21.7953 24.858 22.1756 25.4097 22.535 26.4628L24.4912 32.2248L26.6014 38.4403C26.6932 38.7119 26.8377 38.9627 27.0267 39.1783C27.2157 39.3939 27.4454 39.57 27.7027 39.6966C27.9599 39.8232 28.2397 39.8978 28.5258 39.916C28.8119 39.9342 29.0988 39.8957 29.37 39.8027C29.6413 39.7106 29.8917 39.566 30.1069 39.3771C30.3222 39.1882 30.4981 38.9587 30.6247 38.7018C30.7512 38.4448 30.8259 38.1655 30.8443 37.8797C30.8628 37.5939 30.8248 37.3072 30.7325 37.0361L29.0994 32.2248L26.4572 24.4401C26.1646 23.4643 26.2649 23.1425 26.7476 22.9586C27.2888 22.7497 27.7861 23.13 28.1894 24.133L31.4564 32.2248L32.3393 34.4116C32.5701 34.9272 32.9918 35.3333 33.5157 35.5446C34.0396 35.7559 34.625 35.7559 35.149 35.5447C35.6729 35.3334 36.0946 34.9274 36.3254 34.4118C36.5562 33.8961 36.5783 33.3111 36.3869 32.7796L36.1629 32.2248L31.6331 21.0007C30.7656 18.85 30.2511 17.0363 29.9755 15.5739C29.5001 13.0522 29.7346 11.5749 30.093 11.2152C30.5442 10.7628 33.0178 11.1603 35.339 11.5333C36.7913 11.7666 38.184 11.9904 38.9842 11.9904C42.0183 11.9904 42.5386 7.9659 41.4771 7.91366C31.5474 7.40799 22.8139 1.64196 22.1327 1.04225C21.2536 0.564896 20.9332 0.167063 20.8864 0L44.8126 2.19588e-06V31.2178V32.2248H44.7722C44.0702 40.9326 34.325 47.8337 22.4063 47.8337C10.4876 47.8337 0.742444 40.9326 0.0404743 32.2248H0V31.2178V2.19588e-06L8.20681 0Z" fill="#0900B3"/>
<path d="M142 9.38432V37.4943H137.471L124.225 18.3471H123.992V37.4943H118.9V9.38432H123.457L136.688 28.5452H136.935V9.38432H142Z" fill="#0900B3"/>
<path d="M108.554 18.3608C108.325 17.6197 108.01 16.9563 107.607 16.3706C107.214 15.7759 106.738 15.268 106.18 14.8471C105.631 14.4262 104.999 14.1105 104.286 13.9C103.572 13.6804 102.794 13.5706 101.952 13.5706C100.442 13.5706 99.0973 13.9504 97.9169 14.7098C96.7365 15.4693 95.8078 16.5857 95.1306 18.0589C94.4627 19.5229 94.1287 21.3073 94.1287 23.4118C94.1287 25.5347 94.4627 27.3328 95.1306 28.806C95.7986 30.2792 96.7274 31.4001 97.9169 32.1687C99.1065 32.9282 100.488 33.308 102.062 33.308C103.489 33.308 104.725 33.0335 105.768 32.4844C106.82 31.9354 107.63 31.1576 108.197 30.1511C108.765 29.1354 109.048 27.9458 109.048 26.5824L110.201 26.7609H102.57V22.7805H113.976V26.1569C113.976 28.5635 113.463 30.6452 112.439 32.4021C111.414 34.1589 110.005 35.5132 108.211 36.4648C106.418 37.4073 104.359 37.8786 102.035 37.8786C99.445 37.8786 97.1712 37.2975 95.213 36.1354C93.264 34.9642 91.7404 33.3034 90.6424 31.153C89.5535 28.9936 89.009 26.4315 89.009 23.4667C89.009 21.1974 89.3293 19.1706 89.9698 17.3863C90.6195 15.602 91.5254 14.0876 92.6875 12.8432C93.8496 11.5896 95.213 10.6379 96.7777 9.98824C98.3424 9.32942 100.044 9 101.884 9C103.439 9 104.89 9.22876 106.235 9.68628C107.58 10.1346 108.774 10.7752 109.817 11.6079C110.869 12.4405 111.734 13.4288 112.411 14.5726C113.088 15.7164 113.532 16.9791 113.742 18.3608H108.554Z" fill="#0900B3"/>
<path d="M84.2085 9.38432V37.4943H79.1164V9.38432H84.2085Z" fill="#0900B3"/>
<path d="M69.2922 17.1118C69.1641 15.9131 68.6243 14.9798 67.6726 14.3118C66.7301 13.6438 65.504 13.3098 63.9942 13.3098C62.9327 13.3098 62.0223 13.47 61.2628 13.7902C60.5033 14.1105 59.9223 14.5451 59.5196 15.0942C59.117 15.6432 58.9111 16.27 58.902 16.9746C58.902 17.5602 59.0347 18.068 59.3 18.4981C59.5745 18.9282 59.9451 19.2942 60.4118 19.5961C60.8785 19.889 61.3955 20.136 61.9628 20.3373C62.5301 20.5386 63.102 20.7079 63.6785 20.8452L66.3138 21.504C67.3752 21.7511 68.3955 22.085 69.3746 22.506C70.3628 22.9269 71.2458 23.4576 72.0236 24.0981C72.8106 24.7387 73.4328 25.5119 73.8903 26.4177C74.3478 27.3236 74.5766 28.3851 74.5766 29.6021C74.5766 31.2491 74.1557 32.6995 73.3138 33.9531C72.472 35.1975 71.255 36.172 69.6628 36.8766C68.0798 37.5721 66.1628 37.9198 63.9118 37.9198C61.7249 37.9198 59.8262 37.5812 58.2157 36.9041C56.6144 36.2269 55.3608 35.2387 54.4549 33.9394C53.5582 32.64 53.0732 31.057 53 29.1903H58.0098C58.083 30.1694 58.385 30.9838 58.9157 31.6335C59.4464 32.2831 60.1373 32.7681 60.9883 33.0884C61.8484 33.4086 62.8092 33.5688 63.8706 33.5688C64.9778 33.5688 65.9478 33.4041 66.7805 33.0746C67.6223 32.7361 68.2811 32.2694 68.7569 31.6746C69.2328 31.0707 69.4752 30.3661 69.4844 29.5609C69.4752 28.8289 69.2602 28.2249 68.8393 27.7491C68.4184 27.2642 67.8282 26.8615 67.0687 26.5413C66.3184 26.2119 65.4399 25.9191 64.4334 25.6628L61.2353 24.8393C58.9203 24.2445 57.0902 23.3432 55.7451 22.1354C54.4092 20.9184 53.7412 19.3033 53.7412 17.2903C53.7412 15.634 54.1895 14.1837 55.0863 12.9393C55.9922 11.6948 57.2229 10.7294 58.7785 10.0432C60.334 9.34773 62.0955 9.00002 64.0628 9.00002C66.0576 9.00002 67.8053 9.34773 69.306 10.0432C70.8158 10.7294 72.0008 11.6857 72.8609 12.9118C73.721 14.1288 74.1648 15.5288 74.1923 17.1118H69.2922Z" fill="#0900B3"/>
</svg>
